<svg width="43" height="42" viewBox="0 0 43 42" fill="none" xmlns="http://www.w3.org/2000/svg">
<path fill-rule="evenodd" clip-rule="evenodd" d="M29.154 10.5H33.459C36.3585 10.5 38.709 12.8505 38.709 15.75V29.75C38.709 32.6495 36.3585 35 33.459 35H8.95898C6.05949 35 3.70898 32.6495 3.70898 29.75V15.75C3.70898 12.8505 6.05949 10.5 8.95898 10.5H13.264L15.2065 7.595C16.1799 6.12974 17.8224 5.24934 19.5815 5.25H22.8365C24.5956 5.24934 26.2381 6.12974 27.2115 7.595L29.154 10.5ZM33.459 31.5C34.4255 31.5 35.209 30.7165 35.209 29.75V15.75C35.209 14.7835 34.4255 14 33.459 14H28.209C27.6235 13.997 27.0784 13.7014 26.7565 13.2125L24.289 9.5375C23.967 9.04858 23.4219 8.75303 22.8365 8.75H19.5815C18.996 8.75303 18.4509 9.04858 18.129 9.5375L15.6615 13.2125C15.3395 13.7014 14.7944 13.997 14.209 14H8.95895C7.99246 14 7.20895 14.7835 7.20895 15.75V29.75C7.20895 30.7165 7.99246 31.5 8.95895 31.5H33.459ZM21.209 15.75C17.343 15.75 14.209 18.884 14.209 22.75C14.209 26.616 17.343 29.75 21.209 29.75C25.075 29.75 28.209 26.616 28.209 22.75C28.209 20.8935 27.4715 19.113 26.1587 17.8003C24.846 16.4875 23.0655 15.75 21.209 15.75ZM17.709 22.75C17.709 24.683 19.276 26.25 21.209 26.25C23.142 26.25 24.709 24.683 24.709 22.75C24.709 20.817 23.142 19.25 21.209 19.25C19.276 19.25 17.709 20.817 17.709 22.75Z" fill="#687597"/>
</svg>
