<svg width="25" height="24" viewBox="0 0 25 24" fill="none" xmlns="http://www.w3.org/2000/svg">
<path d="M7.79102 7H6.79102C6.26058 7 5.75187 7.21071 5.3768 7.58579C5.00173 7.96086 4.79102 8.46957 4.79102 9V18C4.79102 18.5304 5.00173 19.0391 5.3768 19.4142C5.75187 19.7893 6.26058 20 6.79102 20H15.791C16.3214 20 16.8302 19.7893 17.2052 19.4142C17.5803 19.0391 17.791 18.5304 17.791 18V17" stroke="#7A7F88" stroke-width="2" stroke-linecap="round" stroke-linejoin="round"/>
<path d="M16.791 4.99998L19.791 7.99998M21.176 6.58499C21.5699 6.19114 21.7911 5.65697 21.7911 5.09998C21.7911 4.543 21.5699 4.00883 21.176 3.61498C20.7822 3.22114 20.248 2.99988 19.691 2.99988C19.134 2.99988 18.5999 3.22114 18.206 3.61498L9.79102 12V15H12.791L21.176 6.58499Z" stroke="#7A7F88" stroke-width="2" stroke-linecap="round" stroke-linejoin="round"/>
</svg>
