<svg width="25" height="14" viewBox="0 0 25 14" fill="none" xmlns="http://www.w3.org/2000/svg">
<path d="M0.75 6C0.75 3.1005 3.1005 0.75 6 0.75H19C21.8995 0.75 24.25 3.10051 24.25 6V8.6967C24.25 11.2114 22.2114 13.25 19.6967 13.25H19.6213C18.462 13.25 17.3501 12.7895 16.5303 11.9697L16.2678 11.7071C15.3348 10.7741 14.0694 10.25 12.75 10.25C11.4306 10.25 10.1652 10.7741 9.23223 11.7071L8.96967 11.9697C8.14989 12.7895 7.03803 13.25 5.87868 13.25H5.65685C2.94687 13.25 0.75 11.0531 0.75 8.34315V6Z" stroke="white" stroke-width="1.5"/>
</svg>
